<svg preserveAspectRatio="none" width="100%" height="100%" overflow="visible" style="display: block;" viewBox="0 0 46.9117 46.9117" fill="none" xmlns="http://www.w3.org/2000/svg">
<g id="logo">
<path id="Vector" d="M7.63213 23.4559C7.63213 14.7167 14.7167 7.63213 23.4559 7.63213C32.195 7.63213 39.2482 14.5335 39.2482 23.2726C39.2482 23.7172 39.2297 24.32 39.2232 24.7743H46.8738C46.8976 24.3374 46.9117 23.8982 46.9117 23.4559C46.9106 10.5011 36.4096 0 23.4559 0C10.5022 0 0 10.5011 0 23.4559C0 36.4106 10.5011 46.9117 23.4559 46.9117C23.8191 46.9117 24.1791 46.902 24.538 46.8857V39.2417C24.1802 39.2655 23.8202 39.2796 23.4559 39.2796C14.7167 39.2796 7.63213 32.195 7.63213 23.4559Z" fill="var(--fill-0, #232729)"/>
<path id="Vector_2" d="M39.1581 24.7742H31.8621V46.9116H39.1581V24.7742Z" fill="var(--fill-0, #232729)"/>
<path id="Vector_3" d="M46.0551 39.2846V31.9886H24.6083V39.2846H46.0551Z" fill="var(--fill-0, #232729)"/>
</g>
</svg>
